PathFileType	4	(X/Y/Z)	/home/nbianco/projects/addbio/data/HamnerRunning2013/Processed/subject08//results/MarkerData/run300.trc
DataRate	CameraRate	NumFrames	NumMarkers	Units	OrigDataRate	OrigDataStartFrame	OrigNumFrames
100	100	9	42	m	100	50	200
Frame#	Time	C7			CLAV			LACR			LASI			LCAL			LFAradius			LFAsuperior			LFAulna			LLEL			LMEL			LMT5			LPSI			LTB1			LTB2			LTB3			LTH1			LTH2			LTH3			LTOE			LUA1			LUA2			LUA3			RACR			RASI			RCAL			RFAradius			RFAsuperior			RFAulna			RLEL			RMEL			RMT5			RPSI			RTB1			RTB2			RTB3			RTH1			RTH2			RTH3			RTOE			RUA1			RUA2			RUA3		
		X1	Y1	Z1	X2	Y2	Z2	X3	Y3	Z3	X4	Y4	Z4	X5	Y5	Z5	X6	Y6	Z6	X7	Y7	Z7	X8	Y8	Z8	X9	Y9	Z9	X10	Y10	Z10	X11	Y11	Z11	X12	Y12	Z12	X13	Y13	Z13	X14	Y14	Z14	X15	Y15	Z15	X16	Y16	Z16	X17	Y17	Z17	X18	Y18	Z18	X19	Y19	Z19	X20	Y20	Z20	X21	Y21	Z21	X22	Y22	Z22	X23	Y23	Z23	X24	Y24	Z24	X25	Y25	Z25	X26	Y26	Z26	X27	Y27	Z27	X28	Y28	Z28	X29	Y29	Z29	X30	Y30	Z30	X31	Y31	Z31	X32	Y32	Z32	X33	Y33	Z33	X34	Y34	Z34	X35	Y35	Z35	X36	Y36	Z36	X37	Y37	Z37	X38	Y38	Z38	X39	Y39	Z39	X40	Y40	Z40	X41	Y41	Z41	X42	Y42	Z42

51	0.93	0.626687	1.53534	-0.361417	0.76277	1.4606	-0.306588	0.707091	1.49564	-0.511448	0.708052	0.977553	-0.450125	0.299745	0.125513	-0.316875	0.851332	1.15344	-0.456214	0.787998	1.1386	-0.598319	0.845934	1.08935	-0.478804	0.702943	1.18755	-0.680496	0.640418	1.15401	-0.641648	0.475111	0.0495499	-0.426901	0.529091	1.06031	-0.356288	0.608171	0.379353	-0.377504	0.51648	0.33153	-0.433772	0.49219	0.209624	-0.353043	0.632218	0.861868	-0.499193	0.693357	0.741861	-0.474398	0.60578	0.609992	-0.455711	0.523616	0.0673806	-0.349218	0.686688	1.38657	-0.60693	0.624237	1.30012	-0.605827	0.683737	1.2719	-0.651984	0.668601	1.50801	-0.170503	0.719626	0.990252	-0.197061	0.423742	0.38058	-0.235343	0.662036	1.02373	-0.0656775	0.517086	1.16166	-0.0112059	0.604727	0.993739	-0.0367138	0.483468	1.23695	-0.0210466	0.455072	1.21994	-0.0955063	0.511266	0.188839	-0.156703	0.531111	1.06106	-0.272178	0.782163	0.448982	-0.210852	0.674603	0.431504	-0.159767	0.608456	0.354126	-0.219421	0.697632	0.86713	-0.130547	0.814438	0.77599	-0.147485	0.79916	0.655732	-0.149319	0.556511	0.188715	-0.2398	0.586916	1.41866	-0.0879913	0.50423	1.35835	-0.12131	0.522325	1.3221	-0.055611
52	0.94	0.627655	1.54152	-0.361046	0.762827	1.46751	-0.304046	0.710573	1.50258	-0.509618	0.709039	0.981338	-0.450258	0.275299	0.137283	-0.319872	0.859574	1.17074	-0.449577	0.798711	1.14934	-0.591862	0.857553	1.10503	-0.468849	0.713146	1.19295	-0.676123	0.650178	1.15767	-0.63826	0.445369	0.0498226	-0.427061	0.530527	1.06599	-0.357611	0.586061	0.385249	-0.378562	0.493621	0.339831	-0.435125	0.467638	0.217178	-0.354947	0.628138	0.866417	-0.498564	0.685252	0.744682	-0.474395	0.591578	0.616401	-0.455389	0.494306	0.0668558	-0.349755	0.692782	1.39278	-0.604801	0.631813	1.30537	-0.605232	0.693173	1.27729	-0.64822	0.666676	1.51529	-0.169766	0.719418	0.999458	-0.197015	0.445906	0.354396	-0.238812	0.653182	1.03355	-0.0647654	0.509033	1.172	-0.0122518	0.595003	1.00322	-0.0382766	0.476365	1.24759	-0.0220185	0.44807	1.23131	-0.0967008	0.551394	0.174229	-0.155188	0.532428	1.06699	-0.27398	0.797768	0.453485	-0.211263	0.691653	0.428667	-0.161555	0.632506	0.345165	-0.220532	0.699669	0.876392	-0.130642	0.817736	0.786559	-0.148539	0.804101	0.665601	-0.151905	0.59702	0.176537	-0.237869	0.582648	1.42773	-0.0883801	0.500099	1.36865	-0.122211	0.516757	1.33223	-0.0559036
53	0.95	0.628707	1.54836	-0.360622	0.762958	1.47523	-0.301558	0.713989	1.51038	-0.50768	0.710732	0.985701	-0.45054	0.252976	0.15071	-0.322639	0.866152	1.18844	-0.443484	0.808143	1.1611	-0.585773	0.866806	1.12167	-0.459844	0.722721	1.19983	-0.672198	0.659405	1.16291	-0.635293	0.4164	0.0506308	-0.427453	0.532678	1.07272	-0.359288	0.564992	0.392698	-0.379501	0.47206	0.349826	-0.436783	0.444137	0.226314	-0.356733	0.625413	0.872278	-0.498016	0.678699	0.749047	-0.474077	0.578629	0.624414	-0.455459	0.465375	0.0664316	-0.350119	0.698396	1.4001	-0.602737	0.639193	1.31172	-0.604439	0.702173	1.28438	-0.645005	0.664899	1.5232	-0.169089	0.719404	1.00864	-0.197318	0.470339	0.327298	-0.242634	0.645364	1.04386	-0.0644361	0.501806	1.1829	-0.0135175	0.586475	1.01342	-0.0399316	0.469929	1.25863	-0.0232847	0.441722	1.24317	-0.0982169	0.592174	0.160394	-0.154261	0.535088	1.07317	-0.275971	0.812518	0.457968	-0.212492	0.70839	0.424606	-0.163546	0.657131	0.335668	-0.222056	0.701941	0.885741	-0.130784	0.820316	0.796463	-0.149477	0.807546	0.675055	-0.154336	0.638148	0.165153	-0.236364	0.578658	1.43752	-0.0889348	0.496267	1.37942	-0.123159	0.51164	1.34265	-0.0562321
54	0.96	0.629866	1.55562	-0.360111	0.763132	1.48349	-0.299194	0.717336	1.51875	-0.505544	0.713002	0.99087	-0.450588	0.233428	0.165615	-0.325081	0.871288	1.20594	-0.438033	0.816291	1.17351	-0.580193	0.873762	1.13877	-0.452043	0.731517	1.20787	-0.668811	0.66809	1.16965	-0.632821	0.388017	0.0517666	-0.42786	0.535522	1.08	-0.360858	0.545691	0.401482	-0.381208	0.452089	0.36107	-0.438936	0.423145	0.236347	-0.359439	0.624481	0.879001	-0.497821	0.673347	0.754248	-0.473762	0.566946	0.633518	-0.456141	0.436874	0.0661421	-0.350278	0.703814	1.40825	-0.600621	0.646092	1.31924	-0.603593	0.710471	1.29277	-0.642377	0.66339	1.53129	-0.168449	0.719683	1.01724	-0.197863	0.497098	0.299962	-0.246334	0.638569	1.0543	-0.0644758	0.495206	1.19393	-0.0149478	0.579066	1.02395	-0.0414811	0.464075	1.26972	-0.0247941	0.436181	1.25515	-0.100165	0.633475	0.147118	-0.154247	0.537801	1.07994	-0.277459	0.826257	0.462215	-0.214262	0.724883	0.419484	-0.165611	0.682271	0.325932	-0.223844	0.704139	0.894778	-0.131287	0.82214	0.805203	-0.150321	0.809447	0.683922	-0.156544	0.679576	0.154734	-0.235869	0.575186	1.44757	-0.089651	0.492691	1.39011	-0.124462	0.506952	1.35303	-0.0567078
55	0.97	0.631136	1.56308	-0.359442	0.763318	1.49195	-0.296911	0.720627	1.5274	-0.503049	0.715672	0.996798	-0.450086	0.21729	0.181896	-0.327524	0.875212	1.22273	-0.433294	0.823138	1.18608	-0.575232	0.878691	1.15557	-0.445211	0.739359	1.21672	-0.665952	0.676076	1.17766	-0.630839	0.359992	0.053041	-0.427965	0.538796	1.08725	-0.361927	0.528429	0.41124	-0.384307	0.433779	0.373016	-0.441725	0.405446	0.246548	-0.363707	0.625053	0.886	-0.498056	0.668708	0.759785	-0.473754	0.556481	0.64321	-0.457542	0.409144	0.06592	-0.350406	0.709146	1.41695	-0.598292	0.65221	1.32788	-0.602891	0.717823	1.30188	-0.640196	0.662216	1.53926	-0.167765	0.720424	1.02513	-0.198313	0.526053	0.272917	-0.249571	0.632759	1.06472	-0.0645208	0.489071	1.20473	-0.0164947	0.572697	1.03443	-0.0427544	0.458686	1.28057	-0.0264774	0.431459	1.26687	-0.102518	0.67534	0.134186	-0.155083	0.539925	1.08711	-0.278402	0.838696	0.465759	-0.215866	0.741024	0.413557	-0.167511	0.707765	0.316209	-0.225543	0.705756	0.903377	-0.131967	0.823154	0.812632	-0.151086	0.809746	0.691884	-0.158523	0.721151	0.145398	-0.236833	0.572287	1.45744	-0.0904187	0.489502	1.40052	-0.12613	0.502816	1.36327	-0.0573407
56	0.98	0.632515	1.57049	-0.358538	0.763498	1.5002	-0.294649	0.723857	1.53601	-0.500073	0.718515	1.00312	-0.448979	0.204602	0.199519	-0.330636	0.878002	1.23843	-0.42919	0.828671	1.19841	-0.570917	0.881999	1.17135	-0.439124	0.746129	1.22598	-0.663542	0.683087	1.18647	-0.629291	0.332562	0.0548087	-0.427844	0.542156	1.09414	-0.362583	0.513142	0.421425	-0.388694	0.417202	0.385105	-0.445106	0.390697	0.25652	-0.369327	0.626407	0.892831	-0.498639	0.664454	0.765456	-0.474254	0.547123	0.653068	-0.459495	0.382867	0.065988	-0.351008	0.714395	1.42592	-0.595722	0.657467	1.33739	-0.602404	0.724115	1.31114	-0.638241	0.661377	1.54684	-0.166982	0.721667	1.03245	-0.198368	0.556939	0.246572	-0.2522	0.627836	1.07491	-0.0643191	0.48335	1.21499	-0.0181054	0.567299	1.04455	-0.0435965	0.453669	1.29093	-0.0282946	0.427396	1.27803	-0.105097	0.717848	0.12162	-0.156734	0.541936	1.09419	-0.27929	0.849712	0.468285	-0.216898	0.756726	0.406971	-0.168953	0.733484	0.306693	-0.226955	0.706493	0.911404	-0.132391	0.823309	0.81887	-0.151744	0.80844	0.698474	-0.160274	0.762755	0.13731	-0.239297	0.569842	1.46681	-0.0910506	0.487022	1.41071	-0.127866	0.499391	1.37329	-0.0580704
57	0.99	0.63398	1.57755	-0.357374	0.763671	1.50785	-0.292415	0.726953	1.54422	-0.496625	0.721295	1.00936	-0.447469	0.19434	0.218269	-0.335042	0.879598	1.25276	-0.425528	0.832905	1.21016	-0.567212	0.884124	1.18567	-0.433806	0.751813	1.23526	-0.661521	0.688907	1.19551	-0.628136	0.306434	0.0580705	-0.428098	0.545397	1.10067	-0.36323	0.499787	0.431374	-0.393559	0.402662	0.396853	-0.448829	0.377768	0.266321	-0.375443	0.627851	0.899304	-0.499462	0.66046	0.771176	-0.475371	0.538818	0.662714	-0.461576	0.358659	0.0671753	-0.352717	0.719527	1.43494	-0.593062	0.662043	1.34732	-0.602	0.72941	1.32024	-0.636385	0.660829	1.55375	-0.166113	0.723289	1.03924	-0.198002	0.589405	0.221269	-0.254238	0.6237	1.08456	-0.0638126	0.478101	1.22449	-0.0197069	0.562847	1.05406	-0.0439184	0.448989	1.30054	-0.0302327	0.423796	1.2883	-0.107701	0.760942	0.109759	-0.159656	0.544189	1.10093	-0.280224	0.859366	0.469776	-0.217506	0.77211	0.399709	-0.169794	0.75928	0.297554	-0.228221	0.706525	0.918488	-0.132439	0.822631	0.823916	-0.152283	0.805605	0.703197	-0.161756	0.804142	0.130734	-0.242951	0.567736	1.47553	-0.0913836	0.485465	1.42061	-0.129379	0.496626	1.3829	-0.058849
58	1	0.635478	1.58398	-0.355987	0.763877	1.5146	-0.290266	0.729784	1.55168	-0.492847	0.723874	1.01517	-0.445918	0.184675	0.237579	-0.340767	0.87998	1.2654	-0.422135	0.835934	1.22111	-0.564093	0.885395	1.19826	-0.429332	0.756503	1.24419	-0.659903	0.693543	1.20425	-0.627387	0.282198	0.0639863	-0.429448	0.54849	1.10685	-0.364093	0.488467	0.440466	-0.397865	0.390595	0.407894	-0.452564	0.365461	0.27624	-0.381079	0.629	0.905397	-0.50046	0.656798	0.776776	-0.477111	0.531798	0.671705	-0.463357	0.336452	0.0706502	-0.355805	0.724477	1.44376	-0.590507	0.666187	1.35715	-0.601453	0.733879	1.32904	-0.634692	0.660537	1.55973	-0.165187	0.725102	1.0453	-0.197457	0.62303	0.197359	-0.255828	0.620345	1.09333	-0.0630284	0.473439	1.23302	-0.0212131	0.559353	1.0627	-0.0437512	0.444673	1.30911	-0.0322555	0.420635	1.29727	-0.110245	0.804317	0.0992025	-0.164497	0.545745	1.10748	-0.280454	0.867677	0.470338	-0.218032	0.787438	0.39176	-0.170234	0.784853	0.288982	-0.229679	0.706333	0.924106	-0.132467	0.821229	0.827407	-0.152724	0.801411	0.705716	-0.16288	0.844865	0.125991	-0.247457	0.565952	1.48337	-0.0913888	0.484686	1.42973	-0.130663	0.49423	1.39167	-0.0596766
59	1.01	0.636927	1.58948	-0.354441	0.764206	1.52022	-0.288222	0.732207	1.55809	-0.488958	0.726303	1.02049	-0.444735	0.17399	0.256754	-0.347034	0.879316	1.27597	-0.418963	0.837969	1.23097	-0.561592	0.885974	1.20886	-0.42564	0.760342	1.25241	-0.658721	0.697211	1.21223	-0.627082	0.259776	0.0732349	-0.432241	0.551473	1.11254	-0.365029	0.479243	0.448294	-0.400985	0.381161	0.418028	-0.456076	0.353066	0.286465	-0.385624	0.629793	0.911113	-0.501539	0.653803	0.781957	-0.479273	0.526643	0.679488	-0.464702	0.315317	0.0771862	-0.359859	0.729117	1.45209	-0.588131	0.669989	1.36631	-0.600643	0.737664	1.3374	-0.633297	0.660503	1.56455	-0.164166	0.726947	1.05033	-0.197029	0.657281	0.175311	-0.257214	0.617859	1.101	-0.0619738	0.469485	1.24036	-0.0225511	0.556827	1.07018	-0.0432339	0.440822	1.31634	-0.0342647	0.418107	1.30459	-0.112742	0.847352	0.090651	-0.171152	0.54534	1.11402	-0.279248	0.874487	0.470053	-0.218633	0.802742	0.383387	-0.170698	0.809725	0.281235	-0.231505	0.706316	0.92787	-0.132869	0.819262	0.828784	-0.153057	0.796129	0.705998	-0.163575	0.884311	0.123368	-0.252593	0.564502	1.49005	-0.0911745	0.484288	1.4373	-0.131943	0.49192	1.39913	-0.060571
